<?xml version="1.0" standalone="no"?>
<!DOCTYPE svg PUBLIC "-//W3C//DTD SVG 20010904//EN"
 "http://www.w3.org/TR/2001/REC-SVG-20010904/DTD/svg10.dtd">
<svg version="1.0" xmlns="http://www.w3.org/2000/svg"
 width="260.000000pt" height="260.000000pt" viewBox="0 0 260.000000 260.000000"
 preserveAspectRatio="xMidYMid meet">
<metadata>
Created by potrace 1.11, written by Peter Selinger 2001-2013
</metadata>
<g transform="translate(0.000000,260.000000) scale(0.100000,-0.100000)"
fill="#000000" stroke="none">
<path d="M945 1962 c-85 -25 -155 -78 -203 -154 l-29 -47 1 82 c1 45 0 88 -2
95 -3 9 -50 12 -187 12 l-182 0 0 -670 -1 -670 192 2 191 3 1 430 c1 447 5
485 45 551 24 39 95 74 149 74 67 0 117 -27 148 -79 l27 -46 3 -390 c1 -214 2
-425 2 -467 l0 -78 195 0 195 0 1 388 c0 213 2 412 5 442 8 93 31 156 67 183
97 73 218 58 271 -33 20 -34 21 -52 22 -500 1 -256 3 -468 3 -472 1 -5 89 -8
196 -8 l195 0 0 508 c-1 537 -5 597 -50 680 -56 105 -167 169 -313 179 -184
12 -335 -57 -403 -183 -10 -19 -21 -34 -24 -34 -3 0 -20 23 -37 50 -45 68
-121 125 -197 149 -75 23 -206 25 -281 3z"/>
</g>
</svg>
